# xmcd
#
# Track frame offsets:
#	150
#	16392
#	34560
#	57675
#	83065
#	103772
#	126955
#	144347
#	162962
#	180882
#	196857
#	210160
#	225770
#
# Disc length: 3467 seconds
#
# Revision: 0
# Processed by: cddbd v1.5.1PL0 Copyright (c) Steve Scherf et al.
# Submitted via: dBpowerAMP V4.0
#
DISCID=990d890d
DTITLE=Hair of the Dog - Bon à Rien
DYEAR=1900
DGENRE=
TTITLE0=Flames of Hell
TTITLE1=Bon à Rien (Good for Nothing)
TTITLE2=Gran/Big Mamou
TTITLE3=Black Snake Blues
TTITLE4=Hungry Ghosts
TTITLE5=Dog Hill
TTITLE6=I Don't Claim to Be an Angel
TTITLE7=Blues a Bebe
TTITLE8=Red Hot Kisses
TTITLE9=Port Arthur Blues
TTITLE10=La Valse de Balfa
TTITLE11=Gran Bosco
TTITLE12=Hot Tamale Mona
EXTD=
EXTT0=
EXTT1=
EXTT2=
EXTT3=
EXTT4=
EXTT5=
EXTT6=
EXTT7=
EXTT8=
EXTT9=
EXTT10=
EXTT11=
EXTT12=
PLAYORDER=
